<svg width="92" height="36" viewBox="0 0 92 36" fill="none" xmlns="http://www.w3.org/2000/svg">
<mask id="path-1-inside-1_176_185" fill="white">
<path d="M8.41987 28.2783C6.59557 28.2783 5.05933 27.9887 3.81113 27.4096C2.56292 26.8064 1.44674 25.9619 0.462585 24.876L3.59509 21.6909C4.2672 22.4389 5.01132 23.0301 5.82745 23.4644C6.64358 23.8988 7.56773 24.1159 8.5999 24.1159C9.65607 24.1159 10.3882 23.9591 10.7962 23.6454C11.2043 23.3076 11.4083 22.8612 11.4083 22.3062C11.4083 21.4134 10.7722 20.8826 9.50004 20.7137L7.44771 20.4603C3.19903 19.9295 1.07468 17.975 1.07468 14.5968C1.07468 13.6799 1.24271 12.8474 1.57876 12.0994C1.93882 11.3273 2.4309 10.6758 3.055 10.1449C3.70311 9.58993 4.47123 9.16766 5.35938 8.87811C6.27152 8.56442 7.29169 8.40758 8.41987 8.40758C9.40403 8.40758 10.2682 8.47997 11.0123 8.62475C11.7804 8.74539 12.4525 8.93843 13.0286 9.20386C13.6287 9.44515 14.1688 9.75884 14.6489 10.1449C15.1529 10.5069 15.645 10.9171 16.1251 11.3755L13.0646 14.5244C12.4645 13.9212 11.7804 13.4507 11.0123 13.1128C10.2682 12.7509 9.50004 12.5699 8.70792 12.5699C7.79577 12.5699 7.14766 12.7147 6.7636 13.0043C6.37954 13.2938 6.18751 13.6799 6.18751 14.1625C6.18751 14.6692 6.31953 15.0673 6.58357 15.3569C6.87162 15.6223 7.3997 15.8154 8.16783 15.936L10.2922 16.2256C14.4448 16.7805 16.5212 18.6868 16.5212 21.9443C16.5212 22.8612 16.3291 23.7057 15.9451 24.4779C15.561 25.25 15.0089 25.9257 14.2888 26.5048C13.5927 27.0597 12.7406 27.4941 11.7324 27.8078C10.7482 28.1214 9.64407 28.2783 8.41987 28.2783ZM25.498 27.844C23.6497 27.844 22.2455 27.3734 21.2853 26.4324C20.3492 25.4913 19.8811 24.1159 19.8811 22.3062V13.0043H17.2167V8.84191H18.5489C19.269 8.84191 19.7611 8.67301 20.0251 8.33519C20.2892 7.97325 20.4212 7.46653 20.4212 6.81503V3.70231H25.21V8.84191H28.9546V13.0043H25.21V23.6816H28.6665V27.844H25.498ZM31.6562 27.844V8.84191H36.9851V12.9681H37.1651C37.2611 12.4372 37.4291 11.9305 37.6692 11.4479C37.9092 10.9412 38.2213 10.4948 38.6053 10.1087C39.0134 9.72264 39.4935 9.42102 40.0456 9.20386C40.5977 8.96256 41.2458 8.84191 41.9899 8.84191H42.926V13.8367H41.5938C40.0336 13.8367 38.8694 14.0418 38.1013 14.452C37.3571 14.8622 36.9851 15.6223 36.9851 16.7323V27.844H31.6562ZM47.8775 6.81503C46.7974 6.81503 46.0052 6.57373 45.5011 6.09114C45.0211 5.58442 44.781 4.94499 44.781 4.17284V3.37656C44.781 2.60442 45.0211 1.97705 45.5011 1.49446C46.0052 0.987735 46.7974 0.734375 47.8775 0.734375C48.9577 0.734375 49.7378 0.987735 50.2179 1.49446C50.722 1.97705 50.974 2.60442 50.974 3.37656V4.17284C50.974 4.94499 50.722 5.58442 50.2179 6.09114C49.7378 6.57373 48.9577 6.81503 47.8775 6.81503ZM45.2131 8.84191H50.542V27.844H45.2131V8.84191ZM54.5154 8.84191H59.8443V12.027H60.0243C60.2883 10.9653 60.8884 10.0967 61.8246 9.42102C62.7847 8.74539 63.8769 8.40758 65.1011 8.40758C67.5015 8.40758 69.3138 9.25212 70.538 10.9412C71.7622 12.6303 72.3743 15.0915 72.3743 18.3248C72.3743 21.5582 71.7622 24.0315 70.538 25.7447C69.3138 27.4338 67.5015 28.2783 65.1011 28.2783C64.477 28.2783 63.8889 28.1818 63.3368 27.9887C62.7847 27.8198 62.2807 27.5785 61.8246 27.2648C61.3925 26.927 61.0205 26.541 60.7084 26.1066C60.3964 25.6482 60.1683 25.1656 60.0243 24.6589H59.8443V35.0828H54.5154V8.84191ZM63.3368 23.935C64.345 23.935 65.1731 23.5851 65.8212 22.8853C66.4933 22.1614 66.8294 21.1963 66.8294 19.9898V16.6961C66.8294 15.4896 66.4933 14.5365 65.8212 13.8367C65.1731 13.1128 64.345 12.7509 63.3368 12.7509C62.3287 12.7509 61.4885 13.0043 60.8164 13.511C60.1683 13.9936 59.8443 14.6692 59.8443 15.5379V21.148C59.8443 22.0167 60.1683 22.7044 60.8164 23.2111C61.4885 23.6937 62.3287 23.935 63.3368 23.935ZM83.3064 28.2783C81.8661 28.2783 80.5819 28.0491 79.4537 27.5906C78.3256 27.108 77.3654 26.4444 76.5733 25.5999C75.8051 24.7312 75.217 23.6816 74.809 22.451C74.4249 21.2204 74.2329 19.845 74.2329 18.3248C74.2329 16.8288 74.4249 15.4775 74.809 14.2711C75.193 13.0405 75.7571 11.9908 76.5013 11.1222C77.2694 10.2535 78.2055 9.58993 79.3097 9.13147C80.4139 8.64888 81.6741 8.40758 83.0903 8.40758C84.6506 8.40758 85.9828 8.67301 87.087 9.20386C88.2151 9.73471 89.1273 10.4465 89.8234 11.3393C90.5435 12.2321 91.0596 13.2697 91.3717 14.452C91.7077 15.6103 91.8757 16.8288 91.8757 18.1077V19.7002H79.7418V19.9898C79.7418 21.2445 80.0778 22.2459 80.7499 22.9939C81.4221 23.7178 82.4782 24.0797 83.9185 24.0797C85.0226 24.0797 85.9228 23.8626 86.6189 23.4282C87.315 22.9698 87.9631 22.4269 88.5632 21.7995L91.2276 25.1294C90.3875 26.1187 89.2833 26.8908 87.9151 27.4458C86.5709 28.0008 85.0346 28.2783 83.3064 28.2783ZM83.1983 12.3528C82.1182 12.3528 81.266 12.7147 80.6419 13.4386C80.0418 14.1384 79.7418 15.0794 79.7418 16.2618V16.5513H86.3669V16.2256C86.3669 15.0673 86.1028 14.1384 85.5747 13.4386C85.0706 12.7147 84.2785 12.3528 83.1983 12.3528Z"/>
</mask>
<path d="M8.41987 28.2783C6.59557 28.2783 5.05933 27.9887 3.81113 27.4096C2.56292 26.8064 1.44674 25.9619 0.462585 24.876L3.59509 21.6909C4.2672 22.4389 5.01132 23.0301 5.82745 23.4644C6.64358 23.8988 7.56773 24.1159 8.5999 24.1159C9.65607 24.1159 10.3882 23.9591 10.7962 23.6454C11.2043 23.3076 11.4083 22.8612 11.4083 22.3062C11.4083 21.4134 10.7722 20.8826 9.50004 20.7137L7.44771 20.4603C3.19903 19.9295 1.07468 17.975 1.07468 14.5968C1.07468 13.6799 1.24271 12.8474 1.57876 12.0994C1.93882 11.3273 2.4309 10.6758 3.055 10.1449C3.70311 9.58993 4.47123 9.16766 5.35938 8.87811C6.27152 8.56442 7.29169 8.40758 8.41987 8.40758C9.40403 8.40758 10.2682 8.47997 11.0123 8.62475C11.7804 8.74539 12.4525 8.93843 13.0286 9.20386C13.6287 9.44515 14.1688 9.75884 14.6489 10.1449C15.1529 10.5069 15.645 10.9171 16.1251 11.3755L13.0646 14.5244C12.4645 13.9212 11.7804 13.4507 11.0123 13.1128C10.2682 12.7509 9.50004 12.5699 8.70792 12.5699C7.79577 12.5699 7.14766 12.7147 6.7636 13.0043C6.37954 13.2938 6.18751 13.6799 6.18751 14.1625C6.18751 14.6692 6.31953 15.0673 6.58357 15.3569C6.87162 15.6223 7.3997 15.8154 8.16783 15.936L10.2922 16.2256C14.4448 16.7805 16.5212 18.6868 16.5212 21.9443C16.5212 22.8612 16.3291 23.7057 15.9451 24.4779C15.561 25.25 15.0089 25.9257 14.2888 26.5048C13.5927 27.0597 12.7406 27.4941 11.7324 27.8078C10.7482 28.1214 9.64407 28.2783 8.41987 28.2783ZM25.498 27.844C23.6497 27.844 22.2455 27.3734 21.2853 26.4324C20.3492 25.4913 19.8811 24.1159 19.8811 22.3062V13.0043H17.2167V8.84191H18.5489C19.269 8.84191 19.7611 8.67301 20.0251 8.33519C20.2892 7.97325 20.4212 7.46653 20.4212 6.81503V3.70231H25.21V8.84191H28.9546V13.0043H25.21V23.6816H28.6665V27.844H25.498ZM31.6562 27.844V8.84191H36.9851V12.9681H37.1651C37.2611 12.4372 37.4291 11.9305 37.6692 11.4479C37.9092 10.9412 38.2213 10.4948 38.6053 10.1087C39.0134 9.72264 39.4935 9.42102 40.0456 9.20386C40.5977 8.96256 41.2458 8.84191 41.9899 8.84191H42.926V13.8367H41.5938C40.0336 13.8367 38.8694 14.0418 38.1013 14.452C37.3571 14.8622 36.9851 15.6223 36.9851 16.7323V27.844H31.6562ZM47.8775 6.81503C46.7974 6.81503 46.0052 6.57373 45.5011 6.09114C45.0211 5.58442 44.781 4.94499 44.781 4.17284V3.37656C44.781 2.60442 45.0211 1.97705 45.5011 1.49446C46.0052 0.987735 46.7974 0.734375 47.8775 0.734375C48.9577 0.734375 49.7378 0.987735 50.2179 1.49446C50.722 1.97705 50.974 2.60442 50.974 3.37656V4.17284C50.974 4.94499 50.722 5.58442 50.2179 6.09114C49.7378 6.57373 48.9577 6.81503 47.8775 6.81503ZM45.2131 8.84191H50.542V27.844H45.2131V8.84191ZM54.5154 8.84191H59.8443V12.027H60.0243C60.2883 10.9653 60.8884 10.0967 61.8246 9.42102C62.7847 8.74539 63.8769 8.40758 65.1011 8.40758C67.5015 8.40758 69.3138 9.25212 70.538 10.9412C71.7622 12.6303 72.3743 15.0915 72.3743 18.3248C72.3743 21.5582 71.7622 24.0315 70.538 25.7447C69.3138 27.4338 67.5015 28.2783 65.1011 28.2783C64.477 28.2783 63.8889 28.1818 63.3368 27.9887C62.7847 27.8198 62.2807 27.5785 61.8246 27.2648C61.3925 26.927 61.0205 26.541 60.7084 26.1066C60.3964 25.6482 60.1683 25.1656 60.0243 24.6589H59.8443V35.0828H54.5154V8.84191ZM63.3368 23.935C64.345 23.935 65.1731 23.5851 65.8212 22.8853C66.4933 22.1614 66.8294 21.1963 66.8294 19.9898V16.6961C66.8294 15.4896 66.4933 14.5365 65.8212 13.8367C65.1731 13.1128 64.345 12.7509 63.3368 12.7509C62.3287 12.7509 61.4885 13.0043 60.8164 13.511C60.1683 13.9936 59.8443 14.6692 59.8443 15.5379V21.148C59.8443 22.0167 60.1683 22.7044 60.8164 23.2111C61.4885 23.6937 62.3287 23.935 63.3368 23.935ZM83.3064 28.2783C81.8661 28.2783 80.5819 28.0491 79.4537 27.5906C78.3256 27.108 77.3654 26.4444 76.5733 25.5999C75.8051 24.7312 75.217 23.6816 74.809 22.451C74.4249 21.2204 74.2329 19.845 74.2329 18.3248C74.2329 16.8288 74.4249 15.4775 74.809 14.2711C75.193 13.0405 75.7571 11.9908 76.5013 11.1222C77.2694 10.2535 78.2055 9.58993 79.3097 9.13147C80.4139 8.64888 81.6741 8.40758 83.0903 8.40758C84.6506 8.40758 85.9828 8.67301 87.087 9.20386C88.2151 9.73471 89.1273 10.4465 89.8234 11.3393C90.5435 12.2321 91.0596 13.2697 91.3717 14.452C91.7077 15.6103 91.8757 16.8288 91.8757 18.1077V19.7002H79.7418V19.9898C79.7418 21.2445 80.0778 22.2459 80.7499 22.9939C81.4221 23.7178 82.4782 24.0797 83.9185 24.0797C85.0226 24.0797 85.9228 23.8626 86.6189 23.4282C87.315 22.9698 87.9631 22.4269 88.5632 21.7995L91.2276 25.1294C90.3875 26.1187 89.2833 26.8908 87.9151 27.4458C86.5709 28.0008 85.0346 28.2783 83.3064 28.2783ZM83.1983 12.3528C82.1182 12.3528 81.266 12.7147 80.6419 13.4386C80.0418 14.1384 79.7418 15.0794 79.7418 16.2618V16.5513H86.3669V16.2256C86.3669 15.0673 86.1028 14.1384 85.5747 13.4386C85.0706 12.7147 84.2785 12.3528 83.1983 12.3528Z" fill="white" stroke="white" stroke-width="2" mask="url(#path-1-inside-1_176_185)"/>
</svg>
