<svg xmlns="http://www.w3.org/2000/svg" width="28" height="28" fill="none"><path fill="#fff" d="M10.055 16.656c-.612.612-2.28 2.314-3.712 3.776A9.959 9.959 0 0 1 4 14a9.96 9.96 0 0 1 2.339-6.426 915.83 915.83 0 0 0 3.743 3.785c1.444 1.443 1.125 4.145-.027 5.297zm6.68-6.64 3.652-3.71A9.96 9.96 0 0 0 14 4a9.959 9.959 0 0 0-6.402 2.319L11.03 9.78c1.936 1.822 4.221 1.503 5.703.235zm4.899-2.475a897.737 897.737 0 0 1-3.775 3.818c-1.444 1.443-1.125 4.145.027 5.297.617.617 2.305 2.339 3.743 3.808A9.96 9.96 0 0 0 24 14a9.96 9.96 0 0 0-2.366-6.459zM20.418 21.67l-3.684-3.742c-1.482-1.268-3.767-1.587-5.703.235l-3.464 3.493A9.959 9.959 0 0 0 14 24c2.443 0 4.68-.876 6.418-2.331z"/></svg>